<?xml version="1.0" encoding="utf-8"?>
<!-- Generator: Adobe Illustrator 23.0.3, SVG Export Plug-In . SVG Version: 6.00 Build 0)  -->
<svg version="1.1" id="Capa_1" xmlns="http://www.w3.org/2000/svg" xmlns:xlink="http://www.w3.org/1999/xlink" x="0px" y="0px"
	 viewBox="0 0 404.6 393.9" style="enable-background:new 0 0 404.6 393.9;" xml:space="preserve">
<style type="text/css">
	.st0{fill:#FF6621;}
</style>
<title>Talk_icons</title>
<path class="st0" d="M215.4,342.7c-7.6,0.2-15.2-0.7-22.7-1.3c-17.8-1.5-31.8,5.5-42.2,20.1c-3.9,5.3-6.9,11.1-9.1,17.2
	c-0.6,2.2-2.5,3.9-4.7,4.4C107.4,391,81,386.4,58,365.5c-6.5-5.9-12.8-12-17.2-19.9c-3.2-5.8-3.2-6.1,1.4-10.8
	C55.9,321,59.6,304,57.4,285.3c-2.4-20.2-12.1-37.3-23-53.8c-11.9-18-21.1-37.1-25.5-58.4c-7.6-37.1-1-71.5,21.3-102.1
	C56,35.5,91.1,14.5,133.9,8.7c43.4-5.9,82.4,5.7,115.3,35.8c11.4,10.5,19.7,23.2,21.7,39.1c1.6,12.6,1.3,25.4-1,37.9
	c-1.6,9.2,0.7,16.9,7.1,23.6c8.1,8.6,17.4,15.4,28.6,19c8.1,2.6,10.7,8.8,7.2,17c-4.3,10.1-12.2,16.7-22.1,20.5
	c-3.9,1.5-4.8,3.6-4.5,7.4c0.6,6.4,0.8,12.8,1.3,19.2c0.2,2.3-0.8,3.9-2.2,5.5c-8.6,9.8-19.7,14.1-32.3,15c-3.8,0.3-7.6,0.3-11.4,0
	c-3.4-0.3-4,1.1-3.3,4c2.4,10.2,8.8,17.1,17.7,21.9c6.5,3.4,13.5,5.1,20.7,6.1c2.1,0.3,3.4,0.9,2.7,3.4c-2.9,10.3-2.1,20.8-1.6,31.3
	c0.5,11.2-2.3,15.2-12.4,19.3C249.3,341,232.5,342.4,215.4,342.7z"/>
<path class="st0" d="M363.6,273.8c-9.3,0-18.7,0-28,0c-7.5,0-12.5-4.9-12.5-11.9s4.9-12.1,12.4-12.1c18.9-0.1,37.8-0.1,56.8,0
	c7.3,0,12.3,4.9,12.4,11.7c0.1,7.3-4.9,12.3-12.6,12.3C382.5,273.8,373,273.7,363.6,273.8L363.6,273.8z"/>
<path class="st0" d="M387.2,203.3c-0.1,4-2.8,7.5-7.3,9.7c-14.8,7.2-29.6,14.3-44.4,21.5c-2.6,1.3-5.2,2.6-7.9,3.7
	c-5.8,2.6-12.6,0-15.2-5.8c0,0,0,0,0-0.1c-2.7-5.9-0.7-12.7,5.3-15.7c17.5-8.6,35-17.1,52.7-25.3
	C378.8,187.5,387.3,193.2,387.2,203.3z"/>
<path class="st0" d="M311.3,296.9c0.1-8.3,7.2-13.9,14.6-12c4.9,1.3,9.2,4,13.7,6.1c13.4,6.2,26.7,12.6,40,18.9
	c5.4,2.6,8.5,7.4,8.1,12.1c-0.4,5.3-4.2,9.8-9.4,11c-2.9,0.8-5.5,0-8-1.1c-17.1-8.1-34.3-16.2-51.4-24.4
	C314.1,305.3,311.6,301.6,311.3,296.9z"/>
</svg>
